<svg width="714" height="653" viewBox="0 0 714 653" fill="none" xmlns="http://www.w3.org/2000/svg">
<path d="M606.485 156.313C574.305 136.628 555.8 127.555 523.404 115.846C522.764 115.615 522.075 116.091 522.056 116.772C520.188 184.984 517.422 221.406 507.567 278.477C507.483 278.963 507.765 279.447 508.232 279.604L585.066 305.449C585.598 305.628 586.174 305.33 586.34 304.794C598.325 265.959 602.84 233.089 606.967 157.233C606.987 156.866 606.799 156.504 606.485 156.313Z" fill="#0F6491"/>
<path d="M421.465 389.487V301.645C421.465 300.96 422.138 300.478 422.786 300.697L576.611 352.788C577.168 352.976 577.438 353.615 577.198 354.153C540.85 435.461 506.994 476.428 423.082 539.16C422.424 539.653 421.465 539.197 421.465 538.375V428.642C421.465 428.385 421.564 428.138 421.741 427.952L446.655 401.806C447.142 401.294 446.96 400.453 446.305 400.189L422.091 390.414C421.713 390.262 421.465 389.895 421.465 389.487Z" fill="#0F6491"/>
<path d="M299.311 539.417C219.629 480.584 184.307 437.546 139.526 346.066C139.133 345.263 139.899 344.365 140.742 344.661L258.751 386.082C258.909 386.138 259.05 386.232 259.162 386.356L300.663 432.424C300.829 432.608 300.92 432.846 300.92 433.093V538.626C300.92 539.446 299.97 539.904 299.311 539.417Z" fill="#0F6491"/>
<path d="M188.452 115.864C152.251 128.955 133.497 138.067 107.438 158.401C107.168 158.612 107.021 158.957 107.055 159.298C112.379 212.631 115.971 242.019 122.642 293.514C122.691 293.892 122.953 294.217 123.314 294.34L299.6 353.986C300.248 354.206 300.92 353.724 300.92 353.039V266.278C300.92 265.858 300.659 265.483 300.265 265.339L197.719 227.709C197.367 227.58 197.117 227.258 197.07 226.887C191.312 180.903 189.669 156.369 189.804 116.814C189.806 116.12 189.106 115.627 188.452 115.864Z" fill="#0F6491"/>
<path d="M506.841 108.798C389.53 64.8753 323.483 65.2587 206.172 108.801C205.806 108.936 205.544 109.285 205.514 109.673C202.341 151.209 204.067 170.914 211.538 198.827C211.7 199.432 212.383 199.741 212.947 199.47C246.845 183.193 268.535 176.895 310.297 171.58C310.894 171.504 311.434 171.968 311.434 172.57V550.614C311.434 550.966 311.618 551.292 311.92 551.472L344.977 571.279C354.392 577.472 359.67 577.675 369.086 571.279L401.106 551.474C401.401 551.292 401.58 550.97 401.58 550.624V172.534C401.58 171.945 402.094 171.484 402.68 171.54C435.819 174.71 457.798 180.678 502.128 199.516C502.706 199.762 503.381 199.419 503.511 198.803C509.465 170.594 510.416 150.813 507.497 109.675C507.469 109.286 507.207 108.935 506.841 108.798Z" fill="#EC1D27"/>
</svg>
